M48
; DRILL file {KiCad (6.0.7)} date Sat Oct 15 00:00:44 2022
; FORMAT={-:-/ absolute / metric / decimal}
; #@! TF.CreationDate,2022-10-15T00:00:44+09:00
; #@! TF.GenerationSoftware,Kicad,Pcbnew,(6.0.7)
; #@! TF.FileFunction,MixedPlating,1,2
FMAT,2
METRIC
; #@! TA.AperFunction,Plated,PTH,ViaDrill
T1C0.400
; #@! TA.AperFunction,Plated,PTH,ComponentDrill
T2C0.714
; #@! TA.AperFunction,Plated,PTH,ComponentDrill
T3C1.000
; #@! TA.AperFunction,Plated,PTH,ComponentDrill
T4C1.020
; #@! TA.AperFunction,Plated,PTH,ComponentDrill
T5C1.200
; #@! TA.AperFunction,Plated,PTH,ComponentDrill
T6C1.500
; #@! TA.AperFunction,Plated,PTH,ComponentDrill
T7C2.500
; #@! TA.AperFunction,NonPlated,NPTH,ComponentDrill
T8C1.500
; #@! TA.AperFunction,NonPlated,NPTH,ComponentDrill
T9C1.800
; #@! TA.AperFunction,NonPlated,NPTH,ComponentDrill
T10C2.750
%
G90
G05
T1
X95.37Y-120.68
X95.47Y-133.84
X96.01Y-61.59
X103.9Y-79.16
X103.9Y-89.01
X107.33Y-87.57
X107.35Y-80.54
X110.1Y-87.38
X110.13Y-81.98
X110.31Y-61.59
X114.6Y-130.55
X116.87Y-97.64
X118.85Y-133.78
X118.95Y-105.28
X119.44Y-108.94
X119.52Y-103.1
X119.62Y-97.01
X120.44Y-100.0
X122.87Y-121.91
X123.49Y-64.26
X124.29Y-77.71
X124.52Y-75.85
X124.98Y-128.15
X125.6Y-82.97
X127.2Y-61.66
X128.54Y-109.08
X129.07Y-123.68
X129.3Y-76.53
X132.38Y-120.39
X132.55Y-66.51
X134.43Y-83.03
X134.99Y-91.95
X135.8Y-76.56
X138.14Y-123.62
X142.01Y-83.08
X142.163Y-98.177
X142.21Y-107.67
X143.197Y-96.183
X143.78Y-101.7
X144.54Y-83.12
X144.77Y-61.66
X145.518Y-102.392
X146.187Y-103.901
X146.48Y-115.72
X146.582Y-99.568
X146.83Y-138.48
X146.96Y-117.53
X147.15Y-83.14
X147.78Y-66.51
X148.7Y-107.1
X149.522Y-116.425
X149.59Y-117.874
X149.69Y-83.17
X149.98Y-77.76
X150.172Y-99.968
X150.76Y-123.65
X151.43Y-101.08
X151.82Y-102.64
X151.99Y-119.74
X153.46Y-99.97
X153.55Y-83.27
X153.78Y-115.37
X154.67Y-121.05
X154.77Y-119.01
X156.13Y-122.36
X158.07Y-123.28
X158.17Y-117.86
X158.92Y-107.39
X159.93Y-66.56
X160.39Y-120.11
X160.44Y-128.45
X160.79Y-61.66
X161.07Y-115.47
X161.07Y-138.5
X161.34Y-86.42
X163.19Y-126.36
X163.25Y-79.91
X164.57Y-131.13
X169.24Y-94.23
X169.95Y-99.93
X170.29Y-108.89
X171.59Y-61.32
X171.59Y-79.14
X172.02Y-73.3
X172.24Y-65.51
X172.53Y-114.11
X173.41Y-100.04
X173.42Y-108.92
X175.42Y-138.5
X187.91Y-61.45
X187.91Y-137.79
X187.93Y-76.79
X187.93Y-83.56
X187.96Y-132.42
X188.02Y-107.94
X188.02Y-115.04
T2
X123.52Y-69.49
X126.06Y-72.03
X128.6Y-69.49
T3
X122.07Y-111.11
X122.07Y-113.65
X124.61Y-111.11
X124.61Y-113.65
X127.15Y-111.11
X127.15Y-113.65
X129.69Y-111.11
X129.69Y-113.65
X132.23Y-111.11
X132.23Y-113.65
X134.77Y-111.11
X134.77Y-113.65
X137.31Y-111.11
X137.31Y-113.65
X138.685Y-75.495
X139.85Y-111.11
X139.85Y-113.65
X141.225Y-75.495
X142.39Y-111.11
X142.39Y-113.65
X143.765Y-75.495
X144.93Y-111.11
X144.93Y-113.65
X146.305Y-75.495
X147.47Y-111.11
X147.47Y-113.65
X148.845Y-75.495
X150.01Y-111.11
X150.01Y-113.65
X151.385Y-75.495
X152.55Y-111.11
X152.55Y-113.65
X153.925Y-75.495
X155.09Y-111.11
X155.09Y-113.65
X156.465Y-75.495
X157.63Y-111.11
X157.63Y-113.65
X159.005Y-75.495
X160.17Y-111.11
X160.17Y-113.65
X162.71Y-111.11
X162.71Y-113.65
X165.25Y-111.11
X165.25Y-113.65
X165.355Y-62.16
X165.355Y-64.7
X165.355Y-67.24
X165.355Y-69.78
X165.355Y-72.32
X165.355Y-74.86
X167.79Y-111.11
X167.79Y-113.65
X170.33Y-111.11
X170.33Y-113.65
X173.1Y-124.74
X173.1Y-127.24
X173.1Y-129.74
X187.6Y-124.74
X187.6Y-129.74
T4
X95.87Y-118.39
X95.87Y-136.17
X98.41Y-118.39
X98.41Y-136.17
X100.95Y-118.39
X100.95Y-136.17
X103.49Y-118.39
X103.49Y-136.17
X106.03Y-118.39
X106.03Y-136.17
X108.57Y-118.39
X108.57Y-136.17
X111.11Y-118.39
X111.11Y-136.17
X113.65Y-118.39
X113.65Y-136.17
X116.19Y-118.39
X116.19Y-136.17
X118.73Y-118.39
X118.73Y-136.17
X121.27Y-118.39
X121.27Y-136.17
X123.81Y-118.39
X123.81Y-136.17
X126.35Y-118.39
X126.35Y-136.17
X128.89Y-118.39
X128.89Y-136.17
X131.43Y-118.39
X131.43Y-136.17
X133.97Y-118.39
X133.97Y-136.17
X136.51Y-118.39
X136.51Y-136.17
X139.05Y-118.39
X139.05Y-136.17
X141.59Y-118.39
X141.59Y-136.17
X143.9Y-124.74
X143.9Y-127.28
X143.9Y-129.82
X144.13Y-118.39
X144.13Y-136.17
T5
X117.79Y-80.4
X120.33Y-80.4
X122.87Y-80.4
X125.41Y-80.4
X127.95Y-80.4
X130.49Y-80.4
X133.03Y-80.4
X135.57Y-80.4
X138.11Y-80.4
X140.65Y-80.4
X143.19Y-80.4
X145.73Y-80.4
X148.27Y-80.4
X150.81Y-80.4
X153.35Y-80.4
X155.89Y-80.4
T7
X112.291Y-80.4
X112.291Y-111.401
X187.289Y-111.401
X187.29Y-80.4
T8
X99.03Y-124.855
X99.03Y-129.705
T9
X96.0Y-124.555
X96.0Y-130.005
T10
X117.2Y-63.38
X117.2Y-112.38
X175.2Y-63.38
T6
G00X179.95Y-121.64
M15
G01X181.25Y-121.64
M16
G05
G00X179.95Y-132.84
M15
G01X181.25Y-132.84
M16
G05
T0
M30
